<?xml version="1.0" encoding="UTF-8" standalone="no"?>
<svg
   xmlns:dc="http://purl.org/dc/elements/1.1/"
   xmlns:cc="http://creativecommons.org/ns#"
   xmlns:rdf="http://www.w3.org/1999/02/22-rdf-syntax-ns#"
   xmlns:svg="http://www.w3.org/2000/svg"
   xmlns="http://www.w3.org/2000/svg"
   viewBox="0 0 576 576"
   height="576"
   width="576"
   xml:space="preserve"
   id="svg2"
   version="1.1"><metadata
     id="metadata8"><rdf:RDF><cc:Work
         rdf:about=""><dc:format>image/svg+xml</dc:format><dc:type
           rdf:resource="http://purl.org/dc/dcmitype/StillImage" /></cc:Work></rdf:RDF></metadata><defs
     id="defs6"><clipPath
       id="clipPath50"
       clipPathUnits="userSpaceOnUse"><path
         id="path48"
         d="M 0,432 H 432 V 0 H 0 Z" /></clipPath></defs><g
     transform="matrix(1.3333333,0,0,-1.3333333,0,576)"
     id="g10"><text
       id="text14"
       style="font-variant:normal;font-weight:bold;font-stretch:normal;font-size:56.81438828px;font-family:Champion;-inkscape-font-specification:Champion-HTF-Middleweight;writing-mode:lr-tb;fill:#fff;fill-opacity:1;fill-rule:nonzero;stroke:#14284b;stroke-width:2;stroke-linecap:round;stroke-linejoin:round;stroke-miterlimit:10;stroke-dasharray:none;stroke-opacity:1"
       transform="matrix(0.86755667,0.14781291,0.16850662,-0.98901534,104.2554,247.9062)"><tspan
         id="tspan12"
         y="0"
         x="0">C</tspan></text>
<text
       id="text18"
       style="font-variant:normal;font-weight:bold;font-stretch:normal;font-size:56.91333389px;font-family:Champion;-inkscape-font-specification:Champion-HTF-Middleweight;writing-mode:lr-tb;fill:#fff;fill-opacity:1;fill-rule:nonzero;stroke:#14284b;stroke-width:2;stroke-linecap:round;stroke-linejoin:round;stroke-miterlimit:10;stroke-dasharray:none;stroke-opacity:1"
       transform="matrix(0.87272168,0.10084456,0.11496252,-0.99490219,135.2842,253.1084)"><tspan
         id="tspan16"
         y="0"
         x="0">A</tspan></text>
<text
       id="text22"
       style="font-variant:normal;font-weight:bold;font-stretch:normal;font-size:56.97372818px;font-family:Champion;-inkscape-font-specification:Champion-HTF-Middleweight;writing-mode:lr-tb;fill:#fff;fill-opacity:1;fill-rule:nonzero;stroke:#14284b;stroke-width:2;stroke-linecap:round;stroke-linejoin:round;stroke-miterlimit:10;stroke-dasharray:none;stroke-opacity:1"
       transform="matrix(0.87583876,0.05553612,0.06331164,-0.99845668,163.835,256.3853)"><tspan
         id="tspan20"
         y="0"
         x="0">R</tspan></text>
<text
       id="text26"
       style="font-variant:normal;font-weight:bold;font-stretch:normal;font-size:56.99931717px;font-family:Champion;-inkscape-font-specification:Champion-HTF-Middleweight;writing-mode:lr-tb;fill:#fff;fill-opacity:1;fill-rule:nonzero;stroke:#14284b;stroke-width:2;stroke-linecap:round;stroke-linejoin:round;stroke-miterlimit:10;stroke-dasharray:none;stroke-opacity:1"
       transform="matrix(0.87716139,0.00861765,0.00982468,-0.99996287,193.9658,258.2661)"><tspan
         id="tspan24"
         y="0"
         x="0">O</tspan></text>
<text
       id="text30"
       style="font-variant:normal;font-weight:bold;font-stretch:normal;font-size:56.98978043px;font-family:Champion;-inkscape-font-specification:Champion-HTF-Middleweight;writing-mode:lr-tb;fill:#fff;fill-opacity:1;fill-rule:nonzero;stroke:#14284b;stroke-width:2;stroke-linecap:round;stroke-linejoin:round;stroke-miterlimit:10;stroke-dasharray:none;stroke-opacity:1"
       transform="matrix(0.87666947,-0.03457813,-0.03941935,-0.999402,225.0801,258.4575)"><tspan
         id="tspan28"
         y="0"
         x="0">L</tspan></text>
<text
       id="text34"
       style="font-variant:normal;font-weight:bold;font-stretch:normal;font-size:56.96199417px;font-family:Champion;-inkscape-font-specification:Champion-HTF-Middleweight;writing-mode:lr-tb;fill:#fff;fill-opacity:1;fill-rule:nonzero;stroke:#14284b;stroke-width:2;stroke-linecap:round;stroke-linejoin:round;stroke-miterlimit:10;stroke-dasharray:none;stroke-opacity:1"
       transform="matrix(0.87523975,-0.06671115,-0.07605071,-0.99777233,250.2139,257.356)"><tspan
         id="tspan32"
         y="0"
         x="0">I</tspan></text>
<text
       id="text38"
       style="font-variant:normal;font-weight:bold;font-stretch:normal;font-size:56.90647125px;font-family:Champion;-inkscape-font-specification:Champion-HTF-Middleweight;writing-mode:lr-tb;fill:#fff;fill-opacity:1;fill-rule:nonzero;stroke:#14284b;stroke-width:2;stroke-linecap:round;stroke-linejoin:round;stroke-miterlimit:10;stroke-dasharray:none;stroke-opacity:1"
       transform="matrix(0.87236476,-0.10478422,-0.1194539,-0.99449498,266.5996,256.2485)"><tspan
         id="tspan36"
         y="0"
         x="0">N</tspan></text>
<text
       id="text42"
       style="font-variant:normal;font-weight:bold;font-stretch:normal;font-size:56.80274963px;font-family:Champion;-inkscape-font-specification:Champion-HTF-Middleweight;writing-mode:lr-tb;fill:#fff;fill-opacity:1;fill-rule:nonzero;stroke:#14284b;stroke-width:2;stroke-linecap:round;stroke-linejoin:round;stroke-miterlimit:10;stroke-dasharray:none;stroke-opacity:1"
       transform="matrix(0.86694745,-0.15239227,-0.1737275,-0.98832009,298.9531,252.2671)"><tspan
         id="tspan40"
         y="0"
         x="0">A</tspan></text>
<g
       id="g44"><g
         clip-path="url(#clipPath50)"
         id="g46"><g
           transform="translate(169.7034,242.9434)"
           id="g52"><path
             id="path54"
             style="fill:#14284b;fill-opacity:1;fill-rule:nonzero;stroke:none"
             d="m 0,0 0.167,-2.996 c 26.653,2.029 57.689,2.508 91.828,-0.349 l 0.183,2.995 C 57.914,2.514 26.76,2.034 0,0" /></g><g
           transform="translate(170.0373,236.9526)"
           id="g56"><path
             id="path58"
             style="fill:#14284b;fill-opacity:1;fill-rule:nonzero;stroke:none"
             d="m 0,0 0.167,-2.997 c 26.427,2.018 57.231,2.498 91.127,-0.347 l 0.184,2.996 C 57.456,2.504 26.535,2.024 0,0" /></g><g
           transform="translate(50.1847,217.1202)"
           id="g60"><path
             id="path62"
             style="fill:#14284b;fill-opacity:1;fill-rule:nonzero;stroke:none"
             d="M 0,0 C 2.579,0.838 5.467,1.742 8.648,2.695 L 7.927,5.608 C 4.751,4.658 1.865,3.755 -0.722,2.916 Z" /></g><g
           transform="translate(59.5557,216.8958)"
           id="g64"><path
             id="path66"
             style="fill:#14284b;fill-opacity:1;fill-rule:nonzero;stroke:none"
             d="m 0,0 c -3.185,-0.955 -6.077,-1.862 -8.647,-2.698 l 0.722,-2.916 c 2.561,0.836 5.456,1.745 8.646,2.703 z" /></g><g
           transform="translate(69.4973,219.7477)"
           id="g68"><path
             id="path70"
             style="fill:#14284b;fill-opacity:1;fill-rule:nonzero;stroke:none"
             d="m 0,0 c -3.094,-0.849 -6.006,-1.681 -8.701,-2.48 l 0.721,-2.911 c 2.693,0.799 5.602,1.631 8.7,2.482 z" /></g><g
           transform="translate(60.073,220.1876)"
           id="g72"><path
             id="path74"
             style="fill:#14284b;fill-opacity:1;fill-rule:nonzero;stroke:none"
             d="M 0,0 C 2.698,0.799 5.612,1.63 8.702,2.477 L 7.981,5.387 C 4.893,4.541 1.981,3.711 -0.721,2.911 Z" /></g><g
           transform="translate(79.5629,222.3909)"
           id="g76"><path
             id="path78"
             style="fill:#14284b;fill-opacity:1;fill-rule:nonzero;stroke:none"
             d="m 0,0 c -3.057,-0.768 -5.986,-1.532 -8.75,-2.282 l 0.72,-2.908 c 2.762,0.75 5.691,1.514 8.75,2.282 z" /></g><g
           transform="translate(101.6096,224.3489)"
           id="g80"><path
             id="path82"
             style="fill:#14284b;fill-opacity:1;fill-rule:nonzero;stroke:none"
             d="M 0,0 C 8.181,1.686 17.015,3.308 26.472,4.769 L 26.304,7.778 C 16.644,6.29 7.624,4.634 -0.721,2.911 Z" /></g><g
           transform="translate(80.2772,225.6668)"
           id="g84"><path
             id="path86"
             style="fill:#14284b;fill-opacity:1;fill-rule:nonzero;stroke:none"
             d="m 0,0 c 2.819,0.699 5.746,1.401 8.795,2.099 l -0.72,2.91 C 5.028,4.31 2.099,3.609 -0.72,2.909 Z" /></g><g
           transform="translate(70.0903,223.0258)"
           id="g88"><path
             id="path90"
             style="fill:#14284b;fill-opacity:1;fill-rule:nonzero;stroke:none"
             d="M 0,0 C 2.766,0.75 5.694,1.513 8.75,2.281 L 8.03,5.19 C 4.975,4.423 2.048,3.66 -0.721,2.91 Z" /></g><g
           transform="translate(100.1663,230.1769)"
           id="g92"><path
             id="path94"
             style="fill:#14284b;fill-opacity:1;fill-rule:nonzero;stroke:none"
             d="m 0,0 c 8.507,1.757 17.712,3.446 27.58,4.959 l -0.168,3.01 C 17.341,6.429 7.95,4.706 -0.721,2.913 Z" /></g><g
           transform="translate(40.1955,210.5042)"
           id="g96"><path
             id="path98"
             style="fill:#14284b;fill-opacity:1;fill-rule:nonzero;stroke:none"
             d="m 0,0 c -2.658,-0.979 -4.095,-1.565 -4.168,-1.596 l -1.386,-0.575 -1.151,2.769 1.385,0.577 c 0.078,0.032 1.664,0.681 4.594,1.756 L -1.451,5.859 C -4.663,4.686 -6.389,3.978 -6.471,3.944 l -4.154,-1.726 3.451,-8.309 4.155,1.724 c 0.069,0.028 1.347,0.551 3.744,1.439 z" /></g><g
           transform="translate(50.4451,210.8923)"
           id="g100"><path
             id="path102"
             style="fill:#14284b;fill-opacity:1;fill-rule:nonzero;stroke:none"
             d="M 0,0 -0.722,2.917 C -4.23,1.763 -7.116,0.753 -9.305,-0.042 L -8.58,-2.97 C -6.427,-2.184 -3.55,-1.172 0,0" /></g><g
           transform="translate(89.7946,224.851)"
           id="g104"><path
             id="path106"
             style="fill:#14284b;fill-opacity:1;fill-rule:nonzero;stroke:none"
             d="m 0,0 c -3.05,-0.699 -5.977,-1.401 -8.795,-2.1 l 0.72,-2.908 c 2.817,0.699 5.745,1.4 8.796,2.099 z" /></g><g
           transform="translate(48.9985,216.7336)"
           id="g108"><path
             id="path110"
             style="fill:#14284b;fill-opacity:1;fill-rule:nonzero;stroke:none"
             d="M 0,0 -0.723,2.918 C -4.188,1.782 -7.05,0.786 -9.308,-0.029 l 0.724,-2.925 C -6.358,-2.148 -3.488,-1.146 0,0" /></g><g
           transform="translate(99.9085,227.0579)"
           id="g112"><path
             id="path114"
             style="fill:#14284b;fill-opacity:1;fill-rule:nonzero;stroke:none"
             d="m 0,0 c -3.041,-0.634 -5.989,-1.275 -8.84,-1.921 l 0.721,-2.909 c 2.85,0.645 5.798,1.286 8.84,1.918 z" /></g><g
           transform="translate(89.6257,230.9642)"
           id="g116"><path
             id="path118"
             style="fill:#14284b;fill-opacity:1;fill-rule:nonzero;stroke:none"
             d="m 0,0 0.721,-2.911 c 2.852,0.646 5.799,1.288 8.839,1.922 L 8.839,1.924 C 5.799,1.289 2.852,0.647 0,0" /></g><g
           transform="translate(379.6364,213.8488)"
           id="g120"><path
             id="path122"
             style="fill:#14284b;fill-opacity:1;fill-rule:nonzero;stroke:none"
             d="m 0,0 c -2.9,0.891 -5.792,1.758 -8.673,2.592 l -0.722,-2.915 c 2.88,-0.834 5.773,-1.703 8.672,-2.595 z" /></g><g
           transform="translate(341.417,227.1941)"
           id="g124"><path
             id="path126"
             style="fill:#14284b;fill-opacity:1;fill-rule:nonzero;stroke:none"
             d="M 0,0 C 2.92,-0.67 5.852,-1.367 8.797,-2.093 L 9.518,0.819 C 6.574,1.546 3.642,2.244 0.722,2.914 Z" /></g><g
           transform="translate(369.7182,216.7951)"
           id="g128"><path
             id="path130"
             style="fill:#14284b;fill-opacity:1;fill-rule:nonzero;stroke:none"
             d="m 0,0 c -2.915,0.836 -5.82,1.646 -8.715,2.425 l -0.721,-2.913 c 2.894,-0.78 5.799,-1.59 8.714,-2.427 z" /></g><g
           transform="translate(349.4929,222.1891)"
           id="g132"><path
             id="path134"
             style="fill:#14284b;fill-opacity:1;fill-rule:nonzero;stroke:none"
             d="m 0,0 c -2.945,0.726 -5.877,1.422 -8.797,2.092 l -0.722,-2.915 c 2.921,-0.669 5.852,-1.364 8.798,-2.09 z" /></g><g
           transform="translate(381.0809,219.6818)"
           id="g136"><path
             id="path138"
             style="fill:#14284b;fill-opacity:1;fill-rule:nonzero;stroke:none"
             d="m 0,0 c -2.9,0.889 -5.793,1.755 -8.675,2.588 l -0.721,-2.915 c 2.881,-0.834 5.774,-1.701 8.674,-2.59 z" /></g><g
           transform="translate(361.7247,222.1325)"
           id="g140"><path
             id="path142"
             style="fill:#14284b;fill-opacity:1;fill-rule:nonzero;stroke:none"
             d="M 0,0 C 2.894,-0.779 5.8,-1.589 8.715,-2.424 L 9.437,0.491 C 6.522,1.326 3.616,2.134 0.721,2.913 Z" /></g><g
           transform="translate(361.13,225.4038)"
           id="g144"><path
             id="path146"
             style="fill:#14284b;fill-opacity:1;fill-rule:nonzero;stroke:none"
             d="m 0,0 c -2.932,0.781 -5.849,1.526 -8.758,2.251 l -0.721,-2.913 c 2.909,-0.725 5.826,-1.47 8.757,-2.252 z" /></g><g
           transform="translate(359.6871,219.5774)"
           id="g148"><path
             id="path150"
             style="fill:#14284b;fill-opacity:1;fill-rule:nonzero;stroke:none"
             d="m 0,0 c -2.931,0.782 -5.849,1.527 -8.758,2.253 l -0.721,-2.914 c 2.909,-0.725 5.826,-1.471 8.757,-2.253 z" /></g><g
           transform="translate(329.606,226.7079)"
           id="g152"><path
             id="path154"
             style="fill:#14284b;fill-opacity:1;fill-rule:nonzero;stroke:none"
             d="m 0,0 c -8.799,1.832 -17.478,3.424 -26.012,4.786 l -0.184,-3.01 c 8.36,-1.339 16.859,-2.901 25.474,-4.692 z" /></g><g
           transform="translate(331.0502,232.5399)"
           id="g156"><path
             id="path158"
             style="fill:#14284b;fill-opacity:1;fill-rule:nonzero;stroke:none"
             d="m 0,0 c -9.167,1.913 -18.204,3.566 -27.087,4.974 l -0.185,-3.01 c 8.709,-1.385 17.567,-3.008 26.55,-4.881 z" /></g><g
           transform="translate(396.9871,214.5548)"
           id="g160"><path
             id="path162"
             style="fill:#14284b;fill-opacity:1;fill-rule:nonzero;stroke:none"
             d="M 0,0 C -1.947,0.661 -3.89,1.307 -5.83,1.942 L -6.554,-0.98 c 1.86,-0.61 3.723,-1.228 5.589,-1.862 l 1.421,-0.481 -0.964,-2.841 -1.42,0.482 c -1.786,0.607 -3.568,1.198 -5.349,1.782 L -8,-6.822 c 1.7,-0.558 3.402,-1.123 5.107,-1.701 l 4.262,-1.446 2.892,8.523 z" /></g><g
           transform="translate(340.1436,227.4837)"
           id="g164"><path
             id="path166"
             style="fill:#14284b;fill-opacity:1;fill-rule:nonzero;stroke:none"
             d="M 0,0 0.722,2.914 C -2.235,3.586 -5.183,4.238 -8.113,4.855 L -8.835,1.938 C -5.905,1.322 -2.957,0.672 0,0" /></g><g
           transform="translate(338.7006,221.6569)"
           id="g168"><path
             id="path170"
             style="fill:#14284b;fill-opacity:1;fill-rule:nonzero;stroke:none"
             d="M 0,0 0.722,2.914 C -2.236,3.585 -5.183,4.233 -8.115,4.849 L -8.837,1.932 C -5.905,1.317 -2.958,0.671 0,0" /></g><g
           transform="translate(382.5204,219.238)"
           id="g172"><path
             id="path174"
             style="fill:#14284b;fill-opacity:1;fill-rule:nonzero;stroke:none"
             d="M 0,0 -0.723,-2.918 C 1.832,-3.709 4.392,-4.516 6.96,-5.353 l 0.723,2.92 C 5.115,-1.598 2.555,-0.791 0,0" /></g><g
           transform="translate(381.0759,213.4047)"
           id="g176"><path
             id="path178"
             style="fill:#14284b;fill-opacity:1;fill-rule:nonzero;stroke:none"
             d="m 0,0 -0.723,-2.918 c 2.555,-0.793 5.114,-1.6 7.682,-2.439 l 0.723,2.92 C 5.114,-1.6 2.555,-0.792 0,0" /></g><g
           transform="translate(261.7896,241.0891)"
           id="g180"><path
             id="path182"
             style="fill:#ffffff;fill-opacity:1;fill-rule:nonzero;stroke:none"
             d="m 0,0 c -34.188,2.858 -65.304,2.395 -92.003,0.362 l 0.334,-5.992 c 26.473,2.022 57.356,2.486 91.302,-0.36 z" /></g><g
           transform="translate(370.8003,221.1645)"
           id="g184"><path
             id="path186"
             style="fill:#ffffff;fill-opacity:1;fill-rule:nonzero;stroke:none"
             d="m 0,0 c -2.915,0.835 -5.821,1.644 -8.715,2.422 l -1.443,-5.825 c 2.894,-0.779 5.8,-1.589 8.715,-2.425 z" /></g><g
           transform="translate(360.7686,223.9445)"
           id="g188"><path
             id="path190"
             style="fill:#ffffff;fill-opacity:1;fill-rule:nonzero;stroke:none"
             d="M 0,0 C -2.932,0.781 -5.849,1.525 -8.758,2.251 L -10.2,-3.574 c 2.908,-0.725 5.826,-1.47 8.757,-2.252 z" /></g><g
           transform="translate(350.5737,226.5535)"
           id="g192"><path
             id="path194"
             style="fill:#ffffff;fill-opacity:1;fill-rule:nonzero;stroke:none"
             d="m 0,0 c -2.945,0.726 -5.877,1.423 -8.797,2.093 l -1.443,-5.827 c 2.921,-0.669 5.853,-1.364 8.798,-2.09 z" /></g><g
           transform="translate(380.7196,218.2225)"
           id="g196"><path
             id="path198"
             style="fill:#ffffff;fill-opacity:1;fill-rule:nonzero;stroke:none"
             d="m 0,0 c -2.9,0.889 -5.793,1.755 -8.674,2.588 l -1.444,-5.828 c 2.881,-0.834 5.774,-1.702 8.673,-2.593 z" /></g><g
           transform="translate(339.0604,223.1098)"
           id="g200"><path
             id="path202"
             style="fill:#ffffff;fill-opacity:1;fill-rule:nonzero;stroke:none"
             d="M 0,0 1.443,5.826 C -1.514,6.497 -4.462,7.148 -7.393,7.764 L -8.837,1.933 C -5.905,1.318 -2.958,0.671 0,0" /></g><g
           transform="translate(390.7953,215.0355)"
           id="g204"><path
             id="path206"
             style="fill:#ffffff;fill-opacity:1;fill-rule:nonzero;stroke:none"
             d="m 0,0 -1.447,-5.842 c 1.74,-0.571 3.482,-1.149 5.229,-1.741 l 2.84,-0.964 1.928,5.682 -2.841,0.963 C 3.803,-1.255 1.9,-0.622 0,0" /></g><g
           transform="translate(330.6874,231.0751)"
           id="g208"><path
             id="path210"
             style="fill:#ffffff;fill-opacity:1;fill-rule:nonzero;stroke:none"
             d="m 0,0 c -9.074,1.891 -18.022,3.528 -26.817,4.925 l -0.369,-6.019 c 8.447,-1.35 17.036,-2.926 25.742,-4.737 z" /></g><g
           transform="translate(382.1591,217.7788)"
           id="g212"><path
             id="path214"
             style="fill:#ffffff;fill-opacity:1;fill-rule:nonzero;stroke:none"
             d="m 0,0 -1.445,-5.833 c 2.555,-0.793 5.114,-1.6 7.682,-2.438 l 1.446,5.837 C 5.114,-1.598 2.555,-0.791 0,0" /></g><g
           transform="translate(68.4149,224.1183)"
           id="g216"><path
             id="path218"
             style="fill:#ffffff;fill-opacity:1;fill-rule:nonzero;stroke:none"
             d="m 0,0 c -3.089,-0.847 -6.002,-1.678 -8.702,-2.477 l 1.443,-5.826 c 2.694,0.8 5.605,1.631 8.701,2.482 z" /></g><g
           transform="translate(78.4808,226.76)"
           id="g220"><path
             id="path222"
             style="fill:#ffffff;fill-opacity:1;fill-rule:nonzero;stroke:none"
             d="m 0,0 c -3.056,-0.768 -5.983,-1.531 -8.75,-2.281 l 1.441,-5.821 c 2.763,0.75 5.692,1.514 8.75,2.282 z" /></g><g
           transform="translate(58.4725,221.27)"
           id="g224"><path
             id="path226"
             style="fill:#ffffff;fill-opacity:1;fill-rule:nonzero;stroke:none"
             d="m 0,0 c -3.178,-0.951 -6.065,-1.855 -8.648,-2.693 l 1.444,-5.834 c 2.566,0.836 5.459,1.744 8.647,2.7 z" /></g><g
           transform="translate(101.2487,225.8065)"
           id="g228"><path
             id="path230"
             style="fill:#ffffff;fill-opacity:1;fill-rule:nonzero;stroke:none"
             d="m 0,0 c 8.262,1.703 17.189,3.342 26.749,4.816 l -0.335,6.018 C 16.445,9.308 7.147,7.601 -1.443,5.826 Z" /></g><g
           transform="translate(39.1073,214.8984)"
           id="g232"><path
             id="path234"
             style="fill:#ffffff;fill-opacity:1;fill-rule:nonzero;stroke:none"
             d="m 0,0 c -3.07,-1.123 -4.727,-1.802 -4.807,-1.835 l -2.77,-1.151 2.301,-5.539 2.771,1.149 c 0.071,0.03 1.429,0.585 3.956,1.519 z" /></g><g
           transform="translate(50.0832,212.3535)"
           id="g236"><path
             id="path238"
             style="fill:#ffffff;fill-opacity:1;fill-rule:nonzero;stroke:none"
             d="m 0,0 -1.446,5.838 c -3.476,-1.141 -6.342,-2.14 -8.585,-2.95 l 1.45,-5.854 C -6.41,-2.175 -3.529,-1.163 0,0" /></g><g
           transform="translate(98.8256,231.4305)"
           id="g240"><path
             id="path242"
             style="fill:#ffffff;fill-opacity:1;fill-rule:nonzero;stroke:none"
             d="m 0,0 c -3.04,-0.634 -5.987,-1.276 -8.839,-1.923 l 1.442,-5.822 c 2.85,0.645 5.798,1.285 8.84,1.918 z" /></g><g
           transform="translate(88.7127,229.2198)"
           id="g244"><path
             id="path246"
             style="fill:#ffffff;fill-opacity:1;fill-rule:nonzero;stroke:none"
             d="m 0,0 c -3.048,-0.699 -5.976,-1.4 -8.795,-2.1 l 1.441,-5.819 c 2.818,0.698 5.745,1.4 8.796,2.098 z" /></g><g
           transform="translate(363.6611,267.2491)"
           id="g248"><path
             id="path250"
             style="fill:#ffffff;fill-opacity:1;fill-rule:nonzero;stroke:none"
             d="m 0,0 c -0.678,-0.409 -1.066,-0.643 -1.744,-1.052 l -21.197,-85.594 c 0.409,-0.678 0.642,-1.066 1.051,-1.744 l 5.982,-1.481 c 0.678,0.409 1.065,0.642 1.744,1.051 L 7.033,-3.225 C 6.624,-2.547 6.391,-2.16 5.982,-1.481 Z" /></g><g
           transform="translate(353.5137,270.0498)"
           id="g252"><path
             id="path254"
             style="fill:#ffffff;fill-opacity:1;fill-rule:nonzero;stroke:none"
             d="m 0,0 c -0.678,-0.409 -1.066,-0.643 -1.744,-1.052 l -21.197,-85.594 c 0.409,-0.678 0.642,-1.066 1.051,-1.744 l 5.982,-1.481 c 0.678,0.409 1.065,0.642 1.744,1.051 L 7.033,-3.225 C 6.624,-2.547 6.39,-2.16 5.982,-1.481 Z" /></g><g
           transform="translate(343.5688,272.9394)"
           id="g256"><path
             id="path258"
             style="fill:#ffffff;fill-opacity:1;fill-rule:nonzero;stroke:none"
             d="m 0,0 c -0.678,-0.409 -1.066,-0.643 -1.744,-1.052 l -21.197,-85.594 c 0.409,-0.678 0.642,-1.066 1.051,-1.744 l 5.982,-1.481 c 0.678,0.409 1.065,0.642 1.744,1.051 L 7.033,-3.225 C 6.624,-2.547 6.391,-2.16 5.982,-1.481 Z" /></g><g
           transform="translate(373.7408,264.663)"
           id="g260"><path
             id="path262"
             style="fill:#ffffff;fill-opacity:1;fill-rule:nonzero;stroke:none"
             d="m 0,0 c -0.678,-0.409 -1.066,-0.643 -1.744,-1.052 l -21.197,-85.594 c 0.409,-0.678 0.642,-1.066 1.051,-1.744 l 5.982,-1.481 c 0.678,0.409 1.065,0.642 1.744,1.051 L 7.033,-3.225 C 6.624,-2.547 6.39,-2.16 5.982,-1.481 Z" /></g><g
           transform="translate(383.6288,261.5945)"
           id="g264"><path
             id="path266"
             style="fill:#ffffff;fill-opacity:1;fill-rule:nonzero;stroke:none"
             d="m 0,0 c -0.678,-0.409 -1.066,-0.643 -1.744,-1.052 l -21.197,-85.594 c 0.409,-0.678 0.642,-1.066 1.051,-1.744 l 5.982,-1.481 c 0.678,0.409 1.065,0.642 1.744,1.051 L 7.033,-3.225 C 6.624,-2.547 6.391,-2.16 5.982,-1.481 Z" /></g><g
           transform="translate(399.9687,256.2377)"
           id="g268"><path
             id="path270"
             style="fill:#ffffff;fill-opacity:1;fill-rule:nonzero;stroke:none"
             d="m 0,0 -0.838,1.389 -5.579,1.382 -1.39,-0.838 -21.097,-85.192 0.838,-1.389 5.579,-1.382 1.389,0.838 z" /></g><g
           transform="translate(37.1606,258.5439)"
           id="g272"><path
             id="path274"
             style="fill:#ffffff;fill-opacity:1;fill-rule:nonzero;stroke:none"
             d="M 0,0 -5.982,-1.481 C -6.391,-2.16 -6.624,-2.547 -7.033,-3.225 L 14.164,-88.82 c 0.679,-0.409 1.066,-0.642 1.744,-1.051 l 5.982,1.481 c 0.409,0.678 0.642,1.066 1.051,1.744 L 1.744,-1.052 C 1.066,-0.643 0.678,-0.409 0,0" /></g><g
           transform="translate(47.0025,261.5945)"
           id="g276"><path
             id="path278"
             style="fill:#ffffff;fill-opacity:1;fill-rule:nonzero;stroke:none"
             d="M 0,0 -5.982,-1.481 C -6.391,-2.16 -6.624,-2.547 -7.033,-3.225 L 14.164,-88.82 c 0.679,-0.409 1.066,-0.642 1.744,-1.051 l 5.982,1.481 c 0.409,0.678 0.642,1.066 1.051,1.744 L 1.744,-1.052 C 1.066,-0.643 0.678,-0.409 0,0" /></g><g
           transform="translate(56.8905,264.663)"
           id="g280"><path
             id="path282"
             style="fill:#ffffff;fill-opacity:1;fill-rule:nonzero;stroke:none"
             d="M 0,0 -5.982,-1.481 C -6.391,-2.16 -6.624,-2.547 -7.033,-3.225 L 14.164,-88.82 c 0.679,-0.409 1.066,-0.642 1.744,-1.051 l 5.982,1.481 c 0.409,0.678 0.642,1.066 1.051,1.744 L 1.744,-1.052 C 1.066,-0.643 0.678,-0.409 0,0" /></g><g
           transform="translate(87.0625,272.9394)"
           id="g284"><path
             id="path286"
             style="fill:#ffffff;fill-opacity:1;fill-rule:nonzero;stroke:none"
             d="M 0,0 -5.982,-1.481 C -6.391,-2.16 -6.624,-2.547 -7.033,-3.225 L 14.164,-88.82 c 0.679,-0.409 1.066,-0.642 1.744,-1.051 l 5.982,1.481 c 0.409,0.678 0.642,1.066 1.051,1.744 L 1.744,-1.052 C 1.066,-0.643 0.678,-0.409 0,0" /></g><g
           transform="translate(77.1176,270.0498)"
           id="g288"><path
             id="path290"
             style="fill:#ffffff;fill-opacity:1;fill-rule:nonzero;stroke:none"
             d="M 0,0 -5.982,-1.481 C -6.39,-2.16 -6.624,-2.547 -7.033,-3.225 L 14.164,-88.82 c 0.679,-0.409 1.066,-0.642 1.744,-1.051 l 5.982,1.481 c 0.409,0.678 0.642,1.066 1.051,1.744 L 1.744,-1.052 C 1.066,-0.643 0.678,-0.409 0,0" /></g><g
           transform="translate(66.9702,267.2491)"
           id="g292"><path
             id="path294"
             style="fill:#ffffff;fill-opacity:1;fill-rule:nonzero;stroke:none"
             d="M 0,0 -5.982,-1.481 C -6.391,-2.16 -6.624,-2.547 -7.033,-3.225 L 14.164,-88.82 c 0.679,-0.409 1.066,-0.642 1.744,-1.051 l 5.982,1.481 c 0.409,0.678 0.642,1.066 1.051,1.744 L 1.744,-1.052 C 1.066,-0.643 0.678,-0.409 0,0" /></g><g
           transform="translate(82.8279,183.6251)"
           id="g296"><path
             id="path298"
             style="fill:#ffffff;fill-opacity:1;fill-rule:nonzero;stroke:none"
             d="m 0,0 v -10.003 h 5.898 c 3.322,0 5.841,0.902 5.841,4.964 C 11.739,-0.301 8.59,0 4.295,0 Z M 0,18.877 V 9.853 h 5.612 c 2.691,0 4.638,1.579 4.638,4.738 0,4.212 -2.634,4.286 -5.497,4.286 z m -13.515,-41.516 v 54.152 h 19.7 c 9.277,0 16.664,-2.859 16.664,-13.613 0,-5.566 -2.749,-9.628 -5.383,-11.808 4.467,-1.504 6.872,-6.543 6.872,-12.41 0,-12.109 -7.044,-16.321 -17.753,-16.321 z" /></g><g
           transform="translate(85.3279,195.9777)"
           id="g300"><path
             id="path302"
             style="fill:#14284b;fill-opacity:1;fill-rule:nonzero;stroke:none"
             d="m 0,0 h 3.112 c 1.519,0 2.138,0.648 2.138,2.238 0,1.686 0,1.786 -2.997,1.786 H 0 Z M 3.112,-5 H -5 V 9.024 h 7.253 c 2.596,0 7.997,0 7.997,-6.786 C 10.25,-2.091 7.382,-5 3.112,-5 M 0,-19.855 h 3.398 c 3.193,0 3.341,0.844 3.341,2.463 0,1.951 0,2.539 -4.944,2.539 H 0 Z m 3.398,-5 H -5 v 15.002 h 6.795 c 3.476,0 9.944,0 9.944,-7.539 0,-3.405 -1.447,-7.463 -8.341,-7.463 m -16.913,-7.636 h 17.6 c 10.549,0 15.253,4.262 15.253,13.82 0,5.12 -1.981,8.967 -5.17,10.041 l -4.254,1.433 3.458,2.862 c 1.05,0.869 4.477,4.151 4.477,9.883 0,7.789 -4.236,11.112 -14.164,11.112 h -17.2 z m 17.6,-5 h -22.6 V 21.66 h 22.2 c 12.716,0 19.164,-5.421 19.164,-16.112 0,-4.111 -1.393,-8.102 -3.832,-11.207 3.348,-2.648 5.321,-7.328 5.321,-13.012 0,-12.488 -6.814,-18.82 -20.253,-18.82" /></g><g
           transform="translate(131.908,198.8175)"
           id="g304"><path
             id="path306"
             style="fill:#ffffff;fill-opacity:1;fill-rule:nonzero;stroke:none"
             d="M 0,0 -4.181,-19.404 H 4.352 Z M -21.532,-37.831 -6.757,16.32 H 6.986 L 21.761,-37.831 H 8.304 L 6.7,-30.687 H -6.757 l -1.547,-7.144 z" /></g><g
           transform="translate(130.8235,181.9132)"
           id="g308"><path
             id="path310"
             style="fill:#14284b;fill-opacity:1;fill-rule:nonzero;stroke:none"
             d="M 0,0 H 2.313 L 1.133,5.262 Z M 8.56,-5 H -6.192 l 7.228,33.547 z m 2.829,-13.427 h 8.183 L 6.162,30.725 h -9.926 l -13.41,-49.152 h 7.938 l 1.547,7.145 H 9.786 Z m 14.73,-5 H 7.387 l -1.603,7.145 h -9.44 l -1.547,-7.145 H -23.721 L -7.582,35.725 H 9.98 Z" /></g><g
           transform="translate(173.8875,191.7472)"
           id="g312"><path
             id="path314"
             style="fill:#ffffff;fill-opacity:1;fill-rule:nonzero;stroke:none"
             d="m 0,0 h 5.326 c 4.18,0 6.413,1.354 6.413,5.114 0,3.836 -2.29,5.641 -5.44,5.641 L 0,10.755 Z M 0,-11.883 V -30.761 H -13.515 V 23.391 H 5.956 c 13.743,0 18.268,-4.889 18.268,-15.418 0,-6.243 -2.12,-11.507 -6.93,-13.238 4.352,-2.105 6.987,-3.459 6.987,-14.365 0,-7.069 -0.172,-9.476 1.431,-9.476 v -1.655 H 12.026 c -0.344,1.203 -0.688,4.663 -0.688,9.477 0,7.069 -0.916,9.401 -7.215,9.401 z" /></g><g
           transform="translate(176.3875,194.2472)"
           id="g316"><path
             id="path318"
             style="fill:#14284b;fill-opacity:1;fill-rule:nonzero;stroke:none"
             d="m 0,0 h 2.826 c 3.913,0 3.913,1.212 3.913,2.614 0,2.172 -0.906,3.141 -2.94,3.141 H 0 Z M 2.826,-5 H -5 v 15.755 h 8.799 c 4.824,0 7.94,-3.195 7.94,-8.141 C 11.739,-0.859 10.193,-5 2.826,-5 m 8.819,-25.761 h 7.907 c -0.287,1.444 -0.282,3.509 -0.274,6.769 l 0.003,1.862 c 0,9.418 -1.747,10.263 -5.576,12.114 l -5.353,2.59 5.596,2.014 c 4.761,1.713 5.276,8.183 5.276,10.885 0,10.859 -5.542,12.918 -15.768,12.918 H -13.515 V -30.761 H -5 v 18.878 h 6.623 c 9,0 9.715,-5.158 9.715,-11.901 0,-3.079 0.144,-5.445 0.307,-6.977 m 14.067,-5 H 7.64 l -0.518,1.814 c -0.476,1.666 -0.784,5.655 -0.784,10.163 0,6.711 -0.671,6.901 -4.715,6.901 H 0 V -35.761 H -18.515 V 23.391 H 3.456 c 14.557,0 20.768,-5.359 20.768,-17.918 0,-5.744 -1.636,-10.307 -4.604,-13.134 2.954,-2.235 4.661,-5.732 4.661,-14.469 l -0.003,-1.875 c -0.005,-2.037 -0.01,-3.99 0.084,-5.101 h 1.35 z" /></g><g
           transform="translate(221.6502,183.6251)"
           id="g320"><path
             id="path322"
             style="fill:#ffffff;fill-opacity:1;fill-rule:nonzero;stroke:none"
             d="m 0,0 v -10.003 h 5.898 c 3.323,0 5.842,0.902 5.842,4.964 C 11.74,-0.301 8.59,0 4.295,0 Z M 0,18.877 V 9.853 h 5.612 c 2.692,0 4.639,1.579 4.639,4.738 0,4.212 -2.634,4.286 -5.497,4.286 z M -13.515,-22.639 V 31.513 H 6.186 c 9.276,0 16.664,-2.859 16.664,-13.613 0,-5.566 -2.749,-9.628 -5.383,-11.808 4.467,-1.504 6.872,-6.543 6.872,-12.41 0,-12.109 -7.044,-16.321 -17.753,-16.321 z" /></g><g
           transform="translate(224.1502,195.9777)"
           id="g324"><path
             id="path326"
             style="fill:#14284b;fill-opacity:1;fill-rule:nonzero;stroke:none"
             d="m 0,0 h 3.112 c 1.52,0 2.139,0.648 2.139,2.238 0,1.686 0,1.786 -2.997,1.786 H 0 Z M 3.112,-5 H -5 V 9.024 h 7.254 c 2.596,0 7.997,0 7.997,-6.786 C 10.251,-2.091 7.382,-5 3.112,-5 M 0,-19.855 h 3.398 c 3.194,0 3.342,0.844 3.342,2.463 0,1.951 0,2.539 -4.945,2.539 H 0 Z m 3.398,-5 H -5 v 15.002 h 6.795 c 3.476,0 9.945,0 9.945,-7.539 0,-3.405 -1.447,-7.463 -8.342,-7.463 m -16.913,-7.636 H 4.086 c 10.549,0 15.253,4.262 15.253,13.82 0,5.12 -1.981,8.967 -5.17,10.041 l -4.254,1.432 3.457,2.863 c 1.051,0.869 4.478,4.152 4.478,9.883 0,7.789 -4.237,11.112 -14.164,11.112 h -17.201 z m 17.601,-5 H -18.515 V 21.66 H 3.686 c 12.716,0 19.164,-5.421 19.164,-16.112 0,-4.111 -1.394,-8.101 -3.832,-11.207 3.348,-2.648 5.321,-7.328 5.321,-13.012 0,-12.488 -6.815,-18.82 -20.253,-18.82" /></g><g
           transform="translate(252.9207,160.9865)"
           id="g328"><path
             id="path330"
             style="fill:#ffffff;fill-opacity:1;fill-rule:nonzero;stroke:none"
             d="M 0,0 V 54.151 H 33.615 V 41.516 h -20.1 V 33.77 H 30.522 V 21.134 H 13.515 V 12.636 H 34.417 V 0 Z" /></g><g
           transform="translate(255.4207,163.4865)"
           id="g332"><path
             id="path334"
             style="fill:#14284b;fill-opacity:1;fill-rule:nonzero;stroke:none"
             d="M 0,0 H 29.417 V 7.636 H 8.515 V 21.134 H 25.522 V 28.77 H 8.515 v 12.746 h 20.1 v 7.635 L 0,49.151 Z M 34.417,-5 H -5 V 54.151 H 33.615 V 36.516 h -20.1 V 33.77 H 30.522 V 16.134 H 13.515 v -3.498 h 20.902 z" /></g><g
           transform="translate(294.2684,160.9865)"
           id="g336"><path
             id="path338"
             style="fill:#ffffff;fill-opacity:1;fill-rule:nonzero;stroke:none"
             d="M 0,0 V 54.151 H 13.515 V 12.636 H 32.068 V 0 Z" /></g><g
           transform="translate(296.7684,163.4865)"
           id="g340"><path
             id="path342"
             style="fill:#14284b;fill-opacity:1;fill-rule:nonzero;stroke:none"
             d="M 0,0 H 27.068 V 7.636 H 8.515 V 49.151 H 0 Z M 32.068,-5 H -5 V 54.151 H 13.515 V 12.636 h 18.553 z" /></g><g
           transform="translate(332.4666,160.9865)"
           id="g344"><path
             id="path346"
             style="fill:#ffffff;fill-opacity:1;fill-rule:nonzero;stroke:none"
             d="M 0,0 V 54.151 H 13.515 V 12.636 H 32.068 V 0 Z" /></g><g
           transform="translate(334.9666,163.4865)"
           id="g348"><path
             id="path350"
             style="fill:#14284b;fill-opacity:1;fill-rule:nonzero;stroke:none"
             d="M 0,0 H 27.068 V 7.636 H 8.515 V 49.151 H 0 Z M 32.068,-5 H -5 V 54.151 H 13.515 V 12.636 h 18.553 z" /></g><g
           transform="translate(139.6786,237.3417)"
           id="g352"><path
             id="path354"
             style="fill:none;stroke:#14284b;stroke-width:3;stroke-linecap:round;stroke-linejoin:round;stroke-miterlimit:10;stroke-dasharray:none;stroke-opacity:1"
             d="M 0,0 0.434,-4.363" /></g><g
           transform="translate(156.6794,239.5334)"
           id="g356"><path
             id="path358"
             style="fill:none;stroke:#14284b;stroke-width:3;stroke-linecap:round;stroke-linejoin:bevel;stroke-miterlimit:10;stroke-dasharray:none;stroke-opacity:1"
             d="M 0,0 0.387,-4.367" /></g><g
           transform="translate(291.3595,237.3417)"
           id="g360"><path
             id="path362"
             style="fill:none;stroke:#14284b;stroke-width:3;stroke-linecap:round;stroke-linejoin:round;stroke-miterlimit:10;stroke-dasharray:none;stroke-opacity:1"
             d="M 0,0 -0.434,-4.363" /></g><g
           transform="translate(274.3587,239.5334)"
           id="g364"><path
             id="path366"
             style="fill:none;stroke:#14284b;stroke-width:3;stroke-linecap:round;stroke-linejoin:round;stroke-miterlimit:10;stroke-dasharray:none;stroke-opacity:1"
             d="M 0,0 -0.387,-4.367" /></g></g></g></g></svg>